<svg width="112" height="53" viewBox="0 0 112 53" fill="none" xmlns="http://www.w3.org/2000/svg">
<g clip-path="url(#clip0_16_54)">
<path d="M16.3319 21.8787C16.3344 19.6423 17.559 17.5764 19.5463 16.4562L29.2043 11.0126C29.7771 10.6897 30.4938 11.0927 30.4932 11.7373L30.4815 22.605C30.4791 24.8413 29.2544 26.9072 27.267 28.0274L17.6092 33.4711C17.0363 33.794 16.3196 33.3909 16.3203 32.7463L16.3319 21.8787Z" fill="white"/>
<path d="M12.0294 2.08258C14.0191 0.96645 16.4684 0.966451 18.4583 2.08258L28.1277 7.50658C28.7013 7.8283 28.7013 8.63434 28.1277 8.95605L18.4583 14.3801C16.4684 15.4961 14.0191 15.4961 12.0294 14.3801L2.35984 8.95605C1.7863 8.63434 1.7863 7.8283 2.35984 7.50658L12.0294 2.08258Z" fill="#89E159"/>
<path d="M0.0116578 22.605C0.0140565 24.8413 1.23876 26.9072 3.22612 28.0274L12.884 33.4711C13.4569 33.794 14.1736 33.3909 14.1729 32.7463L14.1612 21.8787C14.1588 19.6423 12.9342 17.5764 10.9468 16.4562L1.2889 11.0126C0.716052 10.6897 -0.000690931 11.0927 4.99874e-07 11.7373L0.0116578 22.605Z" fill="white"/>
<path d="M16.3319 40.3317C16.3344 38.0954 17.559 36.0295 19.5463 34.9093L29.2043 29.4657C29.7771 29.1428 30.4938 29.5458 30.4932 30.1904L30.4815 41.058C30.4791 43.2944 29.2544 45.3602 27.267 46.4804L17.6092 51.9241C17.0363 52.247 16.3196 51.844 16.3203 51.1994L16.3319 40.3317Z" fill="white"/>
<path d="M0.0116578 41.058C0.0140565 43.2944 1.23876 45.3602 3.22612 46.4804L12.884 51.9241C13.4569 52.247 14.1736 51.844 14.1729 51.1994L14.1612 40.3317C14.1588 38.0954 12.9342 36.0295 10.9468 34.9093L1.2889 29.4657C0.716052 29.1428 -0.000690931 29.5458 4.99874e-07 30.1904L0.0116578 41.058Z" fill="white"/>
<path d="M46.2079 15.1027C47.0689 15.1027 47.8142 15.2472 48.4438 15.5361C49.0826 15.8251 49.5733 16.2352 49.9159 16.7665C50.2584 17.2978 50.4297 17.9269 50.4297 18.654C50.4297 19.3717 50.2584 20.0008 49.9159 20.5415C49.5733 21.0728 49.0826 21.4829 48.4438 21.7718C47.8142 22.0514 47.0689 22.1913 46.2079 22.1913H44.2498V24.8897H42V15.1027H46.2079ZM46.0829 20.3457C46.7588 20.3457 47.2726 20.2012 47.6244 19.9123C47.9763 19.614 48.1522 19.1946 48.1522 18.654C48.1522 18.104 47.9763 17.6846 47.6244 17.3957C47.2726 17.0974 46.7588 16.9483 46.0829 16.9483H44.2498V20.3457H46.0829Z" fill="white"/>
<path d="M56.6462 25.0574C55.6556 25.0574 54.7575 24.8431 53.952 24.4143C53.1558 23.9762 52.5262 23.375 52.0633 22.6107C51.6097 21.8371 51.3828 20.9656 51.3828 19.9962C51.3828 19.0268 51.6097 18.16 52.0633 17.3957C52.5262 16.622 53.1558 16.0208 53.952 15.5921C54.7575 15.154 55.6602 14.9349 56.6601 14.9349C57.5026 14.9349 58.2618 15.0841 58.9376 15.3823C59.6228 15.6806 60.1968 16.1094 60.6597 16.6686L59.2154 18.0108C58.5581 17.2465 57.7433 16.8644 56.7712 16.8644C56.1694 16.8644 55.6324 16.9995 55.1602 17.2698C54.6881 17.5308 54.3177 17.899 54.0492 18.3744C53.79 18.8497 53.6604 19.3903 53.6604 19.9962C53.6604 20.602 53.79 21.1427 54.0492 21.618C54.3177 22.0934 54.6881 22.4662 55.1602 22.7365C55.6324 22.9975 56.1694 23.128 56.7712 23.128C57.7433 23.128 58.5581 22.7412 59.2154 21.9676L60.6597 23.3098C60.1968 23.8783 59.6228 24.3118 58.9376 24.61C58.2525 24.9083 57.4887 25.0574 56.6462 25.0574Z" fill="white"/>
<path d="M63.686 15.1027L65.6997 18.0668L67.7133 15.1027H70.352L67.1162 19.7865L70.6158 24.8897H67.9633L65.6997 21.646L63.4638 24.8897H60.8668L64.3387 19.8843L61.089 15.1027H63.686Z" fill="white"/>
<path d="M71.6465 15.1027H79.493V16.9063H73.8824V18.9196H76.5766C77.7524 18.9196 78.6458 19.1666 79.2569 19.6606C79.8772 20.1546 80.1874 20.8677 80.1874 21.7998C80.1874 22.7785 79.8448 23.5381 79.1597 24.0787C78.4746 24.6194 77.5071 24.8897 76.2572 24.8897H71.6465V15.1027ZM76.1322 23.2119C76.7062 23.2119 77.146 23.1001 77.4515 22.8763C77.757 22.6433 77.9098 22.3078 77.9098 21.8697C77.9098 21.0122 77.3173 20.5834 76.1322 20.5834H73.8824V23.2119H76.1322Z" fill="white"/>
<path d="M48.7354 37.7625C49.328 37.9396 49.7816 38.2285 50.0964 38.6293C50.4112 39.0301 50.5686 39.5242 50.5686 40.1114C50.5686 40.9782 50.2399 41.654 49.5826 42.1387C48.9345 42.6234 48.004 42.8657 46.7912 42.8657H42V33.0787H46.5273C47.6568 33.0787 48.5364 33.2978 49.1659 33.7359C49.7955 34.174 50.1103 34.7985 50.1103 35.6094C50.1103 36.0941 49.9899 36.5228 49.7492 36.8957C49.5085 37.2592 49.1706 37.5481 48.7354 37.7625ZM44.2359 37.1333H46.3329C46.8236 37.1333 47.1939 37.0355 47.4439 36.8397C47.6939 36.6347 47.8189 36.3364 47.8189 35.9449C47.8189 35.5628 47.6892 35.2692 47.43 35.0641C47.18 34.859 46.8143 34.7565 46.3329 34.7565H44.2359V37.1333ZM46.7079 41.1879C47.7633 41.1879 48.291 40.7685 48.291 39.9296C48.291 39.1187 47.7633 38.7132 46.7079 38.7132H44.2359V41.1879H46.7079Z" fill="#89E159"/>
<path d="M66.4742 41.0202V44.9349H64.405V42.8657H56.2808V33.0787H58.5167V41.0202H62.8496V33.0787H65.0855V41.0202H66.4742Z" fill="#89E159"/>
<path d="M67.9577 33.0787H70.1936V39.4542L74.832 33.0787H76.9429V42.8657H74.7209V36.5042L70.0825 42.8657H67.9577V33.0787Z" fill="#89E159"/>
<path d="M90.8761 37.9443C90.8761 39.2399 90.4363 40.2605 89.5567 41.0062C88.6865 41.7425 87.432 42.1526 85.7932 42.2365V43.2991H83.724V42.2226C82.076 42.1293 80.8123 41.7146 79.9327 40.9782C79.0624 40.2325 78.6273 39.2212 78.6273 37.9443C78.6273 36.658 79.0624 35.6513 79.9327 34.9243C80.8123 34.1879 82.076 33.7685 83.724 33.666V32.6593H85.7932V33.652C87.432 33.7452 88.6865 34.1646 89.5567 34.9103C90.4363 35.656 90.8761 36.6673 90.8761 37.9443ZM85.7932 40.4609C86.7746 40.3677 87.506 40.116 87.9875 39.7059C88.4689 39.2865 88.7096 38.6946 88.7096 37.9303C88.7096 36.4389 87.7375 35.6094 85.7932 35.4416V40.4609ZM80.8076 37.9443C80.8076 39.417 81.7797 40.2558 83.724 40.4609V35.4416C82.7334 35.5348 81.9973 35.7865 81.5159 36.1966C81.0437 36.5974 80.8076 37.1799 80.8076 37.9443Z" fill="#89E159"/>
<path d="M96.7671 33.0787C97.6281 33.0787 98.3734 33.2232 99.003 33.5122C99.6418 33.8011 100.132 34.2112 100.475 34.7425C100.818 35.2738 100.989 35.903 100.989 36.63C100.989 37.3477 100.818 37.9769 100.475 38.5175C100.132 39.0488 99.6418 39.4589 99.003 39.7479C98.3734 40.0275 97.6281 40.1673 96.7671 40.1673H94.8089V42.8657H92.5592V33.0787H96.7671ZM96.6421 38.3218C97.3179 38.3218 97.8318 38.1773 98.1836 37.8883C98.5354 37.5901 98.7113 37.1706 98.7113 36.63C98.7113 36.0801 98.5354 35.6606 98.1836 35.3717C97.8318 35.0734 97.3179 34.9243 96.6421 34.9243H94.8089V38.3218H96.6421Z" fill="#89E159"/>
<path d="M110 41.0481V42.8657H102.473V33.0787H109.819V34.8963H104.709V37.0215H109.222V38.7831H104.709V41.0481H110Z" fill="#89E159"/>
</g>
<defs>
<clipPath id="clip0_16_54">
<rect width="112" height="52" fill="white" transform="translate(0 0.90271)"/>
</clipPath>
</defs>
</svg>
